<svg xmlns="http://www.w3.org/2000/svg" xmlns:xlink="http://www.w3.org/1999/xlink" width="1366" zoomAndPan="magnify" viewBox="0 0 1024.5 576" height="768" preserveAspectRatio="xMidYMid meet" version="1.0"><defs><g/><clipPath id="404033e613"><path d="M 0 0.140625 L 1024 0.140625 L 1024 575.859375 L 0 575.859375 Z M 0 0.140625 " clip-rule="nonzero"/></clipPath><clipPath id="8aee5a89ec"><path d="M 497 516 L 543 516 L 543 575.859375 L 497 575.859375 Z M 497 516 " clip-rule="nonzero"/></clipPath></defs><g clip-path="url(#404033e613)"><path fill="#ffffff" d="M 0 0.140625 L 1024 0.140625 L 1024 575.859375 L 0 575.859375 Z M 0 0.140625 " fill-opacity="1" fill-rule="nonzero"/><path fill="#ffffff" d="M 0 0.140625 L 1024 0.140625 L 1024 575.859375 L 0 575.859375 Z M 0 0.140625 " fill-opacity="1" fill-rule="nonzero"/></g><path fill="#594a42" d="M 273.351562 379.078125 C 273.351562 379.078125 270.074219 372.484375 258.378906 378.546875 C 246.679688 384.609375 248.285156 399.445312 261.582031 419.734375 C 274.875 440.023438 278.644531 444.8125 299.730469 438.921875 C 320.816406 433.046875 294.054688 400.199219 285.175781 393.269531 C 276.296875 386.328125 273.351562 379.078125 273.351562 379.078125 Z M 273.351562 379.078125 " fill-opacity="1" fill-rule="nonzero"/><path fill="#fdd0a4" d="M 305.382812 339.949219 C 305.382812 339.949219 324.277344 358.925781 326.394531 370.296875 C 328.507812 381.664062 287.671875 405.507812 282.515625 406.769531 C 269.828125 409.875 259.824219 392.886719 263.96875 383.832031 C 266.785156 377.65625 280.289062 370.195312 280.289062 370.195312 L 271.25 361.117188 C 271.25 361.117188 294.179688 342.558594 305.382812 339.949219 Z M 305.382812 339.949219 " fill-opacity="1" fill-rule="nonzero"/><path fill="#ffffff" d="M 263.953125 383.832031 C 265.796875 379.785156 272.226562 375.207031 276.445312 372.511719 C 276.902344 378.523438 279.3125 393.371094 291.804688 402.152344 C 287.304688 404.726562 283.804688 406.445312 282.515625 406.753906 C 269.828125 409.875 259.824219 392.875 263.953125 383.832031 Z M 263.953125 383.832031 " fill-opacity="1" fill-rule="nonzero"/><path fill="#594a42" d="M 178.203125 368.304688 C 178.203125 368.304688 179.8125 361.117188 192.625 364.210938 C 205.4375 367.300781 207.414062 382.085938 199.363281 404.960938 C 191.3125 427.835938 188.789062 433.390625 166.902344 432.722656 C 145.023438 432.054688 163.152344 393.765625 170.117188 384.90625 C 177.078125 376.0625 178.203125 368.304688 178.203125 368.304688 Z M 178.203125 368.304688 " fill-opacity="1" fill-rule="nonzero"/><path fill="#fdd0a4" d="M 137.753906 337.980469 C 137.753906 337.980469 123.953125 360.929688 124.605469 372.472656 C 125.273438 384.015625 170.609375 397.402344 175.929688 397.390625 C 188.988281 397.367188 194.640625 378.484375 188.457031 370.679688 C 184.238281 365.359375 169.335938 361.351562 169.335938 361.351562 L 175.941406 350.378906 C 175.953125 350.367188 149.253906 337.832031 137.753906 337.980469 Z M 137.753906 337.980469 " fill-opacity="1" fill-rule="nonzero"/><path fill="#fdd0a4" d="M 169.472656 191.179688 C 169.472656 191.179688 136.023438 168.847656 121.898438 145.316406 C 116.730469 136.707031 125.027344 127.464844 120.636719 123.703125 C 116.257812 119.941406 112.5 129.652344 112.5 129.652344 C 112.5 129.652344 110.300781 109.140625 102.792969 109.933594 C 95.285156 110.714844 104.363281 130.285156 104.363281 130.285156 C 104.363281 130.285156 92.480469 114.003906 87.777344 119.484375 C 83.078125 124.964844 98.898438 136.234375 98.898438 136.234375 C 98.898438 136.234375 84.03125 129.195312 82.460938 132.796875 C 80.902344 136.398438 93.257812 142.816406 96.078125 144.847656 C 98.898438 146.875 100.011719 149.734375 106.429688 153.332031 C 112.847656 156.933594 131.679688 196.078125 165.960938 218.605469 Z M 169.472656 191.179688 " fill-opacity="1" fill-rule="nonzero"/><path fill="#fdd0a4" d="M 298.246094 188.878906 C 298.246094 188.878906 335.148438 172.894531 353.253906 152.269531 C 359.882812 144.722656 353.367188 134.144531 358.347656 131.238281 C 363.332031 128.332031 365.285156 138.550781 365.285156 138.550781 C 365.285156 138.550781 371.113281 118.765625 378.371094 120.882812 C 385.617188 123 373.1875 140.628906 373.1875 140.628906 C 373.1875 140.628906 387.804688 126.734375 391.441406 132.96875 C 395.078125 139.207031 377.503906 147.457031 377.503906 147.457031 C 377.503906 147.457031 393.394531 143.1875 394.285156 147.011719 C 395.175781 150.835938 381.871094 154.929688 378.730469 156.4375 C 375.589844 157.9375 373.980469 160.546875 367.03125 162.945312 C 360.066406 165.335938 334.542969 200.480469 296.789062 216.515625 Z M 298.246094 188.878906 " fill-opacity="1" fill-rule="nonzero"/><path fill="#ed1c24" d="M 164.265625 297.4375 C 164.265625 297.4375 133.027344 325.558594 130.691406 338.066406 C 128.355469 350.5625 168.953125 356.824219 175.210938 359.160156 C 181.457031 361.5 216.601562 339.625 222.070312 336.507812 C 227.535156 333.378906 262.679688 372.96875 273.613281 368.28125 C 284.546875 363.589844 311.875 348.226562 310.316406 341.199219 C 308.757812 334.171875 277.519531 293.542969 277.519531 293.542969 Z M 164.265625 297.4375 " fill-opacity="1" fill-rule="nonzero"/><path fill="#ffffff" d="M 182.234375 188.839844 C 179.453125 188.417969 166.617188 184.929688 164.28125 184.929688 C 161.941406 184.929688 152.566406 210.714844 158.8125 219.3125 C 165.058594 227.910156 178.339844 231.027344 178.339844 231.027344 C 178.339844 231.027344 171.082031 282.023438 159.59375 292.75 C 147.882812 303.6875 198.632812 309.15625 232.222656 309.933594 C 265.808594 310.714844 281.195312 301.929688 286.882812 295.089844 C 290.789062 290.398438 277.148438 257.6875 271.261719 234.144531 C 270.484375 231.015625 305.628906 227.898438 307.96875 224.769531 C 310.304688 221.636719 303.28125 188.828125 298.59375 183.359375 C 293.90625 177.902344 270.484375 202.117188 182.234375 188.839844 Z M 182.234375 188.839844 " fill-opacity="1" fill-rule="nonzero"/><path fill="#ed1c24" d="M 225.183594 220.871094 C 225.183594 220.871094 216.589844 264.617188 213.472656 273.996094 C 210.34375 283.371094 226.753906 292.75 229.871094 295.867188 C 233 298.996094 245.492188 285.710938 247.050781 278.683594 C 248.609375 271.65625 234.558594 221.648438 234.558594 221.648438 Z M 225.183594 220.871094 " fill-opacity="1" fill-rule="nonzero"/><path fill="#ca171e" d="M 218.160156 210.714844 C 215.824219 210.714844 218.941406 231.808594 231.441406 228.675781 C 243.945312 225.546875 245.503906 215.390625 240.039062 211.492188 C 234.558594 207.597656 218.160156 210.714844 218.160156 210.714844 Z M 218.160156 210.714844 " fill-opacity="1" fill-rule="nonzero"/><path fill="#fdd0a4" d="M 158.800781 148.992188 C 158.800781 148.992188 164.527344 216.441406 230.664062 216.960938 C 296.367188 217.480469 307.1875 166.953125 307.1875 141.964844 C 307.1875 116.960938 293.128906 68.527344 289.230469 68.527344 C 285.335938 68.527344 248.621094 64.617188 241.59375 68.527344 C 234.570312 72.433594 198.644531 84.929688 198.644531 84.929688 L 172.875 90.683594 Z M 158.800781 148.992188 " fill-opacity="1" fill-rule="nonzero"/><path fill="#603913" d="M 203.320312 97.425781 C 203.320312 97.425781 214.253906 127.898438 243.152344 105.234375 C 243.152344 105.234375 262.679688 116.949219 277.519531 101.324219 C 277.519531 101.324219 271.277344 127.886719 287.671875 130.234375 C 287.671875 130.234375 279.859375 150.550781 298.605469 152.109375 C 298.605469 152.109375 297.828125 168.515625 308.757812 170.074219 C 319.691406 171.632812 319.691406 158.355469 319.691406 158.355469 C 319.691406 158.355469 334.53125 156.019531 332.972656 140.394531 C 332.972656 140.394531 343.359375 136.484375 333.085938 118.519531 C 333.085938 118.519531 346.242188 97.425781 327.507812 89.605469 C 327.507812 89.605469 332.195312 68.511719 318.132812 65.382812 C 318.132812 65.382812 326.726562 35.691406 303.292969 37.261719 C 303.292969 37.261719 297.046875 17.726562 281.429688 26.324219 C 281.429688 26.324219 268.9375 18.050781 261.902344 24.136719 C 261.902344 24.136719 250.191406 0.542969 229.882812 16.949219 C 229.882812 16.949219 195.515625 8.351562 190.050781 31.015625 C 190.050781 31.015625 171.304688 30.234375 170.523438 48.976562 C 170.523438 48.976562 145.53125 46.640625 147.882812 65.382812 C 147.882812 65.382812 129.925781 64.605469 131.484375 85.699219 C 131.484375 85.699219 114.109375 101.324219 131.382812 113.039062 C 131.382812 113.039062 128.355469 130.222656 143.972656 134.914062 C 143.972656 134.914062 135.378906 147.40625 149.4375 151.316406 C 149.4375 151.316406 165.835938 170.074219 170.523438 153.65625 C 170.523438 153.65625 185.363281 140.367188 177.546875 126.3125 C 177.546875 126.3125 190.832031 120.84375 186.144531 102.882812 C 186.144531 102.894531 199.414062 103.6875 203.320312 97.425781 Z M 203.320312 97.425781 " fill-opacity="1" fill-rule="nonzero"/><path fill="#ffffff" d="M 188.46875 370.679688 C 185.710938 367.191406 178.378906 364.285156 173.640625 362.675781 C 174.628906 368.625 175.84375 383.621094 165.8125 395.136719 C 170.796875 396.5625 174.605469 397.390625 175.929688 397.390625 C 188.988281 397.367188 194.652344 378.472656 188.46875 370.679688 Z M 188.46875 370.679688 " fill-opacity="1" fill-rule="nonzero"/><path fill="#512e08" d="M 306.136719 146.714844 C 291.296875 141.765625 298.097656 125.683594 298.097656 125.683594 C 278.003906 120.117188 284.804688 87.019531 284.804688 87.019531 C 268.726562 107.125 243.996094 95.679688 243.996094 95.679688 C 221.425781 113.929688 207.203125 86.09375 207.203125 86.09375 C 197.621094 100.9375 175.050781 92.898438 175.050781 92.898438 C 185.253906 115.167969 169.484375 124.445312 169.484375 124.445312 C 176.597656 142.695312 163.921875 147.023438 163.921875 147.023438 C 163.921875 147.023438 166.703125 153.210938 162.375 154.757812 C 158.046875 156.304688 149.4375 151.328125 149.4375 151.328125 C 149.4375 151.328125 165.835938 170.085938 170.523438 153.667969 C 170.523438 153.667969 185.363281 140.378906 177.546875 126.328125 C 177.546875 126.328125 190.832031 120.859375 186.144531 102.894531 C 186.144531 102.894531 199.425781 103.671875 203.320312 97.425781 C 203.320312 97.425781 214.253906 127.898438 243.152344 105.234375 C 243.152344 105.234375 262.679688 116.949219 277.519531 101.324219 C 277.519531 101.324219 271.277344 127.886719 287.671875 130.234375 C 287.671875 130.234375 279.871094 150.550781 298.605469 152.109375 C 298.605469 152.109375 297.828125 168.515625 308.757812 170.074219 C 319.691406 171.632812 319.691406 158.355469 319.691406 158.355469 C 301.699219 170.640625 306.136719 146.714844 306.136719 146.714844 Z M 306.136719 146.714844 " fill-opacity="1" fill-rule="nonzero"/><path fill="#fbb278" d="M 223.070312 159.953125 C 224.28125 158.382812 227.808594 162.722656 233.25 163.121094 C 238.691406 163.515625 241.125 157.75 243.5 159.136719 C 245.875 160.523438 241.027344 167.96875 232.851562 168.5625 C 224.679688 169.167969 222.03125 161.3125 223.070312 159.953125 Z M 223.070312 159.953125 " fill-opacity="1" fill-rule="nonzero"/><path fill="#f07b57" d="M 209.777344 181.046875 C 211.632812 178.375 252.675781 175.910156 257.820312 179.894531 C 262.964844 183.878906 251.09375 204.910156 232.269531 204.179688 C 213.460938 203.464844 207.289062 184.644531 209.777344 181.046875 Z M 209.777344 181.046875 " fill-opacity="1" fill-rule="nonzero"/><path fill="#482700" d="M 279.191406 148.980469 C 277.1875 141.542969 270.273438 135.433594 262.691406 134.75 C 254.976562 134.058594 245.789062 139.773438 243.414062 147.121094 C 242.929688 148.609375 245.019531 149.871094 246.074219 148.667969 C 250.386719 143.757812 253.9375 139.835938 260.851562 138.957031 C 268.578125 137.980469 272.066406 145.167969 275.949219 150.339844 C 277.113281 151.863281 279.746094 151.042969 279.191406 148.980469 Z M 279.191406 148.980469 " fill-opacity="1" fill-rule="nonzero"/><path fill="#482700" d="M 185.613281 148.359375 C 187.613281 140.925781 194.527344 134.8125 202.109375 134.132812 C 209.824219 133.441406 219.015625 139.15625 221.386719 146.503906 C 221.871094 147.988281 219.78125 149.25 218.730469 148.050781 C 214.414062 143.140625 210.863281 139.21875 203.953125 138.339844 C 196.222656 137.363281 192.734375 144.550781 188.851562 149.722656 C 187.6875 151.242188 185.054688 150.425781 185.613281 148.359375 Z M 185.613281 148.359375 " fill-opacity="1" fill-rule="nonzero"/><path fill="#512e08" d="M 425.597656 242.890625 C 425.597656 242.890625 450.765625 339.476562 410.386719 345.34375 C 410.386719 345.34375 467.730469 396.277344 504.597656 367.003906 C 541.460938 337.734375 503.421875 265.730469 503.421875 265.730469 Z M 425.597656 242.890625 " fill-opacity="1" fill-rule="nonzero"/><path fill="#512e08" d="M 587.390625 241.71875 C 587.390625 241.71875 562.226562 338.304688 602.601562 344.167969 C 602.601562 344.167969 545.257812 395.101562 508.394531 365.828125 C 471.527344 336.558594 509.570312 264.554688 509.570312 264.554688 Z M 587.390625 241.71875 " fill-opacity="1" fill-rule="nonzero"/><g clip-path="url(#8aee5a89ec)"><path fill="#594a42" d="M 516.640625 519.054688 C 510.941406 521.566406 492.019531 548.894531 498.300781 563.515625 C 504.585938 578.140625 523.097656 582.953125 533.722656 570.320312 C 544.332031 557.691406 543.8125 535.074219 538.421875 523.320312 C 533.015625 511.570312 516.640625 519.054688 516.640625 519.054688 Z M 516.640625 519.054688 " fill-opacity="1" fill-rule="nonzero"/></g><path fill="#fdd0a4" d="M 510.273438 455.785156 C 510.273438 455.785156 512.386719 520.339844 513.550781 528.269531 C 514.714844 536.199219 532.941406 537.375 537.085938 533.503906 C 541.226562 529.644531 555.929688 467.054688 551.75 444.03125 C 547.582031 421.007812 510.273438 455.785156 510.273438 455.785156 Z M 510.273438 455.785156 " fill-opacity="1" fill-rule="nonzero"/><path fill="#594a42" d="M 480.496094 458.445312 C 480.496094 458.445312 481.113281 451.441406 493.628906 452.753906 C 506.144531 454.066406 509.878906 467.808594 505.128906 490.476562 C 500.378906 513.140625 498.699219 518.71875 477.898438 520.835938 C 457.109375 522.964844 469.453125 484.4375 474.929688 475.171875 C 480.394531 465.929688 480.496094 458.445312 480.496094 458.445312 Z M 480.496094 458.445312 " fill-opacity="1" fill-rule="nonzero"/><path fill="#fdd0a4" d="M 438.386719 434.839844 C 438.386719 434.839844 428.207031 458.296875 430.285156 469.144531 C 432.363281 479.996094 476.96875 486.9375 481.992188 486.269531 C 494.34375 484.597656 497.324219 466.015625 490.5 459.410156 C 485.835938 454.90625 471.230469 452.988281 471.230469 452.988281 L 476.105469 441.765625 C 476.105469 441.753906 449.257812 433.242188 438.386719 434.839844 Z M 438.386719 434.839844 " fill-opacity="1" fill-rule="nonzero"/><path fill="#ffffff" d="M 490.5 459.398438 C 487.445312 456.441406 480.148438 454.609375 475.460938 453.695312 C 477.15625 459.199219 480.171875 473.242188 472.136719 485.402344 C 477.03125 486.121094 480.742188 486.429688 481.992188 486.257812 C 494.359375 484.597656 497.324219 466.003906 490.5 459.398438 Z M 490.5 459.398438 " fill-opacity="1" fill-rule="nonzero"/><path fill="#ed1c24" d="M 460.421875 382.582031 C 460.421875 382.582031 419.8125 428.417969 422.421875 437.796875 C 425.019531 447.175781 455.21875 472.175781 507.800781 470.085938 C 560.382812 468.007812 581.207031 449.773438 586.933594 441.445312 C 592.660156 433.105469 568.71875 386.230469 557.773438 377.386719 C 546.839844 368.515625 460.421875 382.582031 460.421875 382.582031 Z M 460.421875 382.582031 " fill-opacity="1" fill-rule="nonzero"/><path fill="#fdd0a4" d="M 448.019531 300.691406 C 448.019531 300.691406 410.191406 314.339844 382.871094 311.714844 C 378.941406 310.441406 372.175781 306.53125 367.488281 306.273438 C 362.800781 306.011719 355.257812 316.171875 354.738281 322.675781 C 354.21875 329.183594 363.332031 332.835938 365.410156 332.574219 C 367.488281 332.316406 369.835938 330.757812 372.175781 330.238281 C 374.511719 329.71875 376.898438 331.289062 380.140625 328.9375 C 386.84375 325.917969 429.507812 334.023438 467.992188 319.832031 Z M 448.019531 300.691406 " fill-opacity="1" fill-rule="nonzero"/><path fill="#fdd0a4" d="M 562.199219 285.761719 C 562.199219 285.761719 597.816406 267.078125 614.339844 245.15625 C 620.386719 237.140625 613.113281 227.082031 617.863281 223.804688 C 622.613281 220.523438 625.332031 230.582031 625.332031 230.582031 C 625.332031 230.582031 629.671875 210.417969 637.070312 211.988281 C 644.453125 213.558594 633.371094 232.066406 633.371094 232.066406 C 633.371094 232.066406 646.914062 217.132812 651.007812 223.074219 C 655.097656 229.023438 638.195312 238.5625 638.195312 238.5625 C 638.195312 238.5625 653.726562 233.132812 654.902344 236.867188 C 656.078125 240.617188 643.105469 245.6875 640.085938 247.421875 C 637.070312 249.152344 635.660156 251.875 628.894531 254.769531 C 622.128906 257.675781 599.289062 294.617188 562.832031 313.410156 Z M 562.199219 285.761719 " fill-opacity="1" fill-rule="nonzero"/><path fill="#ffffff" d="M 477.464844 290.386719 C 477.464844 290.386719 447.402344 298.207031 444.667969 300.542969 C 441.933594 302.882812 443.109375 321.242188 448.179688 324.769531 C 453.25 328.28125 465.359375 323.988281 465.359375 323.988281 C 465.359375 323.988281 474.335938 351.332031 461.066406 370.46875 C 447.785156 389.609375 464.578125 410.703125 499.726562 409.527344 C 534.871094 408.351562 552.445312 395.078125 559.863281 384.523438 C 567.285156 373.96875 555.574219 361.871094 550.105469 354.449219 C 544.640625 347.023438 548.933594 326.710938 553.234375 322.417969 C 557.527344 318.125 573.925781 309.921875 575.097656 307.96875 C 576.273438 306.011719 566.503906 283.359375 564.945312 281.007812 C 563.386719 278.660156 536.441406 290.386719 524.335938 291.167969 C 512.226562 291.945312 477.464844 290.386719 477.464844 290.386719 Z M 477.464844 290.386719 " fill-opacity="1" fill-rule="nonzero"/><path fill="#ed1c24" d="M 503.757812 305.753906 C 503.757812 305.753906 495.160156 349.5 492.046875 358.878906 C 488.917969 368.253906 505.328125 377.632812 508.441406 380.75 C 511.558594 383.867188 524.0625 370.59375 525.621094 363.566406 C 527.179688 356.539062 513.128906 306.53125 513.128906 306.53125 Z M 503.757812 305.753906 " fill-opacity="1" fill-rule="nonzero"/><path fill="#e6e7e8" d="M 507.144531 296.636719 C 507.144531 296.636719 499.726562 308.351562 495.433594 309.527344 C 491.140625 310.703125 479.8125 297.808594 475.90625 293.503906 C 472 289.210938 507.144531 296.636719 507.144531 296.636719 Z M 507.144531 296.636719 " fill-opacity="1" fill-rule="nonzero"/><path fill="#e6e7e8" d="M 507.144531 296.636719 C 507.144531 296.636719 514.566406 305.617188 520.03125 306.792969 C 525.496094 307.96875 538.777344 290.769531 538.777344 289.210938 C 538.777344 287.652344 507.144531 296.636719 507.144531 296.636719 Z M 507.144531 296.636719 " fill-opacity="1" fill-rule="nonzero"/><path fill="#ca171e" d="M 495.433594 301.71875 C 495.433594 301.71875 496.609375 310.703125 506.367188 311.878906 C 516.121094 313.050781 520.425781 305.628906 520.425781 300.941406 C 520.425781 296.25 507.9375 292.34375 507.9375 292.34375 C 507.9375 292.34375 497.78125 295.472656 496.609375 295.472656 C 495.433594 295.472656 495.433594 301.71875 495.433594 301.71875 Z M 495.433594 301.71875 " fill-opacity="1" fill-rule="nonzero"/><path fill="#fdd0a4" d="M 448.800781 283.570312 C 448.800781 283.570312 463.9375 299.382812 504.3125 298.503906 C 544.691406 297.625 559.171875 285.773438 564.871094 279.191406 C 570.574219 272.609375 588.132812 234.851562 587.6875 231.769531 C 587.257812 228.703125 582.867188 190.945312 582.867188 190.945312 C 582.867188 190.945312 568.816406 173.375 567.507812 172.0625 C 566.195312 170.753906 521.859375 145.28125 518.347656 146.15625 C 514.835938 147.035156 434.960938 173.375 433.648438 173.820312 C 432.339844 174.253906 423.992188 212.011719 423.992188 212.011719 C 423.992188 212.011719 429.273438 274.355469 448.800781 283.570312 Z M 448.800781 283.570312 " fill-opacity="1" fill-rule="nonzero"/><path fill="#603913" d="M 467.730469 115.277344 C 415.855469 125.375 398.09375 194.011719 413.023438 238.796875 C 427.949219 283.582031 448.800781 283.582031 448.800781 283.582031 C 413.480469 227.390625 450.765625 186.996094 450.765625 186.996094 C 443.742188 200.171875 457.789062 207.1875 457.789062 207.1875 C 472.703125 179.078125 492.898438 185.226562 492.898438 185.226562 C 480.605469 191.375 478.851562 207.175781 478.851562 207.175781 C 526.25 202.785156 544.675781 179.957031 544.675781 179.957031 C 544.675781 179.957031 550.824219 200.148438 560.480469 213.324219 C 560.480469 213.324219 561.359375 204.539062 560.480469 193.132812 C 560.480469 193.132812 585.933594 233.527344 564.871094 279.191406 C 564.871094 279.191406 599.980469 259 599.101562 204.550781 C 598.226562 150.105469 562.523438 96.832031 467.730469 115.277344 Z M 467.730469 115.277344 " fill-opacity="1" fill-rule="nonzero"/><path fill="#ffffff" d="M 541.636719 521.789062 C 526.203125 527.304688 517.410156 524.039062 512.882812 520.636719 C 513.105469 524.324219 513.316406 527.070312 513.5 528.34375 C 514.675781 536.3125 532.980469 537.488281 537.144531 533.601562 C 538.160156 532.675781 539.804688 528.257812 541.636719 521.789062 Z M 541.636719 521.789062 " fill-opacity="1" fill-rule="nonzero"/><path fill="#512e08" d="M 450.765625 186.984375 C 443.742188 200.160156 457.789062 207.175781 457.789062 207.175781 C 472.703125 179.078125 492.898438 185.226562 492.898438 185.226562 C 480.605469 191.375 478.851562 207.175781 478.851562 207.175781 C 526.25 202.785156 544.675781 179.957031 544.675781 179.957031 C 544.675781 179.957031 550.824219 200.148438 560.480469 213.324219 C 560.480469 213.324219 561.359375 204.539062 560.480469 193.132812 C 560.480469 193.132812 585.933594 233.527344 564.871094 279.191406 C 564.871094 279.191406 564.910156 279.167969 564.921875 279.152344 C 568.484375 273.339844 580.851562 251.070312 578.191406 225.585938 C 575.097656 195.890625 555.929688 174.859375 555.929688 174.859375 C 556.859375 181.355469 554.695312 186.613281 554.695312 186.613281 C 549.746094 181.664062 545.730469 161.871094 545.730469 161.871094 C 536.453125 187.851562 495.644531 197.4375 495.644531 197.4375 C 497.191406 189.398438 509.554688 181.664062 509.554688 181.664062 C 475.546875 161.25 456.996094 195.273438 456.996094 195.273438 C 450.503906 183.828125 458.542969 165.890625 458.542969 165.890625 C 458.542969 165.890625 421.445312 195.273438 425.464844 233.007812 C 429.480469 270.742188 448.785156 283.570312 448.785156 283.570312 C 413.480469 227.378906 450.765625 186.984375 450.765625 186.984375 Z M 450.765625 186.984375 " fill-opacity="1" fill-rule="nonzero"/><path fill="#fbb278" d="M 492.292969 250.835938 C 493.542969 249.203125 497.214844 253.71875 502.878906 254.125 C 508.542969 254.535156 511.078125 248.546875 513.539062 249.980469 C 516 251.417969 510.964844 259.160156 502.46875 259.792969 C 493.960938 260.410156 491.214844 252.246094 492.292969 250.835938 Z M 492.292969 250.835938 " fill-opacity="1" fill-rule="nonzero"/><path fill="#f07b57" d="M 487.457031 269.515625 C 488.707031 267.710938 516.296875 266.066406 519.757812 268.75 C 523.222656 271.433594 515.234375 285.5625 502.582031 285.078125 C 489.941406 284.585938 485.789062 271.941406 487.457031 269.515625 Z M 487.457031 269.515625 " fill-opacity="1" fill-rule="nonzero"/><path fill="#482700" d="M 550.636719 232.316406 C 548.5625 224.582031 541.375 218.222656 533.484375 217.519531 C 525.460938 216.800781 515.914062 222.738281 513.453125 230.382812 C 512.957031 231.929688 515.121094 233.242188 516.222656 231.992188 C 520.699219 226.882812 524.394531 222.8125 531.59375 221.898438 C 539.632812 220.882812 543.253906 228.355469 547.300781 233.726562 C 548.472656 235.308594 551.207031 234.453125 550.636719 232.316406 Z M 550.636719 232.316406 " fill-opacity="1" fill-rule="nonzero"/><path fill="#482700" d="M 453.351562 231.671875 C 455.425781 223.9375 462.613281 217.578125 470.503906 216.875 C 478.527344 216.15625 488.074219 222.09375 490.535156 229.742188 C 491.03125 231.289062 488.867188 232.597656 487.765625 231.347656 C 483.289062 226.238281 479.59375 222.167969 472.394531 221.253906 C 464.355469 220.238281 460.734375 227.710938 456.6875 233.082031 C 455.515625 234.664062 452.769531 233.8125 453.351562 231.671875 Z M 453.351562 231.671875 " fill-opacity="1" fill-rule="nonzero"/><path fill="#594a42" d="M 869.425781 426.734375 C 875.621094 426.476562 904.496094 442.609375 905.289062 458.417969 C 906.082031 474.242188 891.648438 486.664062 876.625 480.019531 C 861.609375 473.378906 852.160156 452.953125 851.839844 440.085938 C 851.519531 427.230469 869.425781 426.734375 869.425781 426.734375 Z M 869.425781 426.734375 " fill-opacity="1" fill-rule="nonzero"/><path fill="#fdd0a4" d="M 847.351562 367.140625 C 847.351562 367.140625 873.867188 426.042969 876.300781 433.675781 C 878.75 441.308594 862.894531 450.390625 857.480469 448.746094 C 852.0625 447.101562 811.316406 397.390625 804.933594 374.875 C 798.550781 352.355469 847.351562 367.140625 847.351562 367.140625 Z M 847.351562 367.140625 " fill-opacity="1" fill-rule="nonzero"/><path fill="#ffffff" d="M 848.304688 440.132812 C 864.503906 438.304688 870.933594 431.535156 873.480469 426.5 C 874.90625 429.902344 875.90625 432.4375 876.300781 433.664062 C 878.75 441.296875 862.894531 450.378906 857.480469 448.734375 C 856.167969 448.335938 852.769531 445.109375 848.304688 440.132812 Z M 848.304688 440.132812 " fill-opacity="1" fill-rule="nonzero"/><path fill="#594a42" d="M 683.445312 424.445312 C 677.25 424.519531 649.261719 442.164062 649.3125 458 C 649.359375 473.835938 664.4375 485.476562 679.078125 478.054688 C 693.71875 470.628906 702.066406 449.722656 701.710938 436.867188 C 701.351562 423.988281 683.445312 424.445312 683.445312 424.445312 Z M 683.445312 424.445312 " fill-opacity="1" fill-rule="nonzero"/><path fill="#fdd0a4" d="M 702.339844 363.765625 C 702.339844 363.765625 678.992188 423.988281 676.953125 431.734375 C 674.910156 439.492188 691.222656 447.707031 696.550781 445.777344 C 701.882812 443.847656 739.921875 392.035156 745.105469 369.21875 C 750.273438 346.417969 702.339844 363.765625 702.339844 363.765625 Z M 702.339844 363.765625 " fill-opacity="1" fill-rule="nonzero"/><path fill="#ffffff" d="M 705.257812 436.707031 C 688.984375 435.730469 682.207031 429.320312 679.386719 424.433594 C 678.152344 427.898438 677.273438 430.496094 676.953125 431.734375 C 674.910156 439.492188 691.222656 447.707031 696.550781 445.777344 C 697.839844 445.316406 701.066406 441.914062 705.257812 436.707031 Z M 705.257812 436.707031 " fill-opacity="1" fill-rule="nonzero"/><path fill="#fdd0a4" d="M 865.914062 234.40625 C 865.914062 234.40625 894.222656 262.984375 920.003906 272.347656 C 924.097656 272.894531 931.890625 272.273438 936.230469 274.042969 C 940.570312 275.824219 943.03125 288.234375 940.707031 294.347656 C 938.382812 300.445312 928.589844 299.828125 926.820312 298.699219 C 925.050781 297.574219 923.605469 295.152344 921.710938 293.679688 C 919.820312 292.207031 917 292.589844 915.082031 289.089844 C 910.324219 283.472656 869.945312 276.136719 841.28125 246.789062 Z M 865.914062 234.40625 " fill-opacity="1" fill-rule="nonzero"/><path fill="#fdd0a4" d="M 715.683594 193.589844 C 715.683594 193.589844 679.425781 169.390625 664.128906 143.882812 C 658.523438 134.554688 667.515625 124.53125 662.765625 120.460938 C 658.019531 116.390625 653.949219 126.90625 653.949219 126.90625 C 653.949219 126.90625 651.574219 104.675781 643.425781 105.53125 C 635.289062 106.382812 645.132812 127.589844 645.132812 127.589844 C 645.132812 127.589844 632.234375 109.945312 627.152344 115.882812 C 622.066406 121.824219 639.195312 134.035156 639.195312 134.035156 C 639.195312 134.035156 623.082031 126.402344 621.386719 130.308594 C 619.695312 134.21875 633.097656 141.171875 636.152344 143.375 C 639.207031 145.578125 640.421875 148.683594 647.371094 152.578125 C 654.320312 156.476562 670.210938 198.910156 707.375 223.34375 Z M 715.683594 193.589844 " fill-opacity="1" fill-rule="nonzero"/><path fill="#ed1c24" d="M 722.484375 313.632812 C 722.558594 312.074219 693.570312 355.117188 694.796875 362.996094 C 696.019531 370.867188 738.105469 385.75 747.550781 384.066406 C 757 382.394531 770.085938 359.136719 776.464844 356.292969 C 782.847656 353.445312 799.589844 385.824219 806.21875 389.238281 C 812.847656 392.652344 850.292969 382.296875 854.90625 372.078125 C 859.519531 361.859375 833.476562 313.792969 833.476562 313.792969 Z M 722.484375 313.632812 " fill-opacity="1" fill-rule="nonzero"/><path fill="#ffffff" d="M 747.367188 197.957031 C 747.367188 197.957031 713.246094 185.078125 708.894531 187.023438 C 704.914062 188.804688 693.347656 222.058594 700.152344 226.128906 C 707.894531 230.769531 727.035156 237.078125 727.035156 237.078125 C 727.035156 237.078125 712.925781 297.722656 717.898438 315.144531 C 722.867188 332.5625 757.335938 330.941406 787.484375 332.785156 C 817.632812 334.628906 833.328125 321.230469 837.125 317.753906 C 840.921875 314.265625 824.894531 248.78125 824.894531 248.78125 C 824.894531 248.78125 839.832031 264.554688 848.230469 263.355469 C 856.613281 262.15625 873.742188 239.972656 869.289062 234.554688 C 864.839844 229.148438 813.640625 196.152344 813.640625 196.152344 Z M 747.367188 197.957031 " fill-opacity="1" fill-rule="nonzero"/><path fill="#ed1c24" d="M 774.066406 219.941406 C 774.066406 219.941406 763.046875 263.144531 759.414062 272.335938 C 755.777344 281.527344 771.617188 291.796875 774.574219 295.089844 C 777.515625 298.378906 790.738281 285.820312 792.691406 278.882812 C 794.644531 271.953125 783.390625 221.242188 783.390625 221.242188 Z M 774.066406 219.941406 " fill-opacity="1" fill-rule="nonzero"/><path fill="#e6e7e8" d="M 777.960938 211.035156 C 777.960938 211.035156 769.898438 222.316406 765.546875 223.257812 C 761.191406 224.1875 750.605469 210.6875 746.945312 206.171875 C 743.285156 201.667969 777.960938 211.035156 777.960938 211.035156 Z M 777.960938 211.035156 " fill-opacity="1" fill-rule="nonzero"/><path fill="#e6e7e8" d="M 777.960938 211.035156 C 777.960938 211.035156 784.875 220.425781 790.265625 221.898438 C 795.660156 223.371094 809.867188 206.953125 809.953125 205.394531 C 810.042969 203.824219 777.960938 211.035156 777.960938 211.035156 Z M 777.960938 211.035156 " fill-opacity="1" fill-rule="nonzero"/><path fill="#ca171e" d="M 765.980469 215.453125 C 765.980469 215.453125 766.648438 224.484375 776.328125 226.203125 C 786.011719 227.921875 790.710938 220.746094 790.972656 216.070312 C 791.230469 211.394531 778.976562 206.792969 778.976562 206.792969 C 778.976562 206.792969 768.664062 209.339844 767.5 209.277344 C 766.324219 209.214844 765.980469 215.453125 765.980469 215.453125 Z M 765.980469 215.453125 " fill-opacity="1" fill-rule="nonzero"/><path fill="#fdd0a4" d="M 702.539062 159.925781 C 702.539062 159.925781 719.195312 218.261719 784.28125 213.570312 C 849.355469 208.882812 851.964844 159.40625 855.351562 147.160156 C 858.742188 134.925781 852.484375 101.0625 852.484375 101.0625 L 834.785156 75.019531 C 834.785156 75.019531 815.519531 64.085938 804.066406 58.875 C 792.617188 53.667969 749.925781 52.109375 749.925781 52.109375 L 715.039062 63.046875 L 705.148438 93.257812 C 705.148438 93.257812 699.941406 112.53125 699.941406 110.441406 C 699.929688 108.375 692.644531 148.472656 702.539062 159.925781 Z M 702.539062 159.925781 " fill-opacity="1" fill-rule="nonzero"/><path fill="#603913" d="M 832.695312 30.246094 C 793.941406 6.890625 741.058594 22.960938 741.058594 22.960938 C 740.28125 17.097656 745.351562 11.628906 745.351562 11.628906 C 729.730469 16.316406 727.394531 28.8125 727.394531 28.8125 C 718.800781 26.859375 708.128906 34.28125 708.128906 34.28125 C 715.410156 31.152344 723.488281 34.28125 723.488281 34.28125 C 705.136719 37.792969 686.386719 70.085938 681.710938 98.996094 C 677.027344 127.910156 702.539062 159.941406 702.539062 159.941406 C 694.734375 131.820312 719.714844 101.089844 719.714844 101.089844 C 720.234375 112.023438 728.050781 113.582031 728.050781 113.582031 C 725.453125 89.621094 738.464844 72.953125 740.019531 71.914062 C 740.019531 71.914062 753.824219 97.957031 773.335938 100.296875 C 773.335938 100.296875 767.09375 88.582031 769.046875 76.46875 C 769.046875 76.46875 780.375 89.878906 806.925781 92.933594 C 833.476562 95.992188 836.210938 118.261719 836.210938 118.261719 C 836.210938 118.261719 841.675781 115.128906 841.28125 101.855469 C 841.28125 101.855469 858.195312 113.050781 855.339844 147.171875 C 855.339844 147.171875 897.511719 69.304688 832.695312 30.246094 Z M 832.695312 30.246094 " fill-opacity="1" fill-rule="nonzero"/><path fill="#512e08" d="M 719.714844 101.074219 C 720.234375 112.011719 728.050781 113.570312 728.050781 113.570312 C 725.441406 89.605469 738.464844 72.941406 740.019531 71.902344 C 740.019531 71.902344 753.824219 97.945312 773.335938 100.285156 C 773.335938 100.285156 767.089844 88.566406 769.046875 76.457031 C 769.046875 76.457031 780.375 89.867188 806.925781 92.921875 C 833.476562 95.976562 836.210938 118.246094 836.210938 118.246094 C 836.210938 118.246094 841.675781 115.117188 841.28125 101.84375 C 841.28125 101.84375 857.429688 112.554688 855.488281 144.894531 C 866.617188 100.046875 832.324219 84.226562 832.324219 84.226562 C 837.890625 94.742188 835.109375 98.453125 835.109375 98.453125 C 835.109375 98.453125 816.867188 81.441406 797.699219 80.203125 C 778.53125 78.96875 765.238281 62.265625 765.238281 62.265625 C 758.433594 69.996094 761.527344 86.390625 761.527344 86.390625 C 750.398438 78.96875 741.429688 58.554688 741.429688 58.554688 C 724.117188 74.019531 723.5 95.050781 723.5 95.050781 C 721.027344 89.792969 721.953125 81.132812 721.953125 81.132812 C 721.953125 81.132812 702.476562 102.472656 698.148438 124.433594 C 693.820312 146.394531 702.527344 159.914062 702.527344 159.914062 C 694.722656 131.808594 719.714844 101.074219 719.714844 101.074219 Z M 719.714844 101.074219 " fill-opacity="1" fill-rule="nonzero"/><path fill="#fbb278" d="M 769.21875 147.976562 C 770.542969 146.257812 774.402344 151.007812 780.335938 151.429688 C 786.285156 151.863281 788.945312 145.5625 791.539062 147.074219 C 794.125 148.582031 788.84375 156.722656 779.914062 157.378906 C 770.988281 158.035156 768.09375 149.449219 769.21875 147.976562 Z M 769.21875 147.976562 " fill-opacity="1" fill-rule="nonzero"/><path fill="#f07b57" d="M 757.753906 172.261719 C 759.546875 169.675781 799.257812 167.289062 804.242188 171.148438 C 809.226562 175.007812 797.722656 195.347656 779.519531 194.644531 C 761.316406 193.949219 755.355469 175.738281 757.753906 172.261719 Z M 757.753906 172.261719 " fill-opacity="1" fill-rule="nonzero"/><path fill="#482700" d="M 830.53125 135.988281 C 828.34375 127.871094 820.800781 121.191406 812.515625 120.4375 C 804.082031 119.683594 794.050781 125.929688 791.464844 133.960938 C 790.933594 135.59375 793.222656 136.964844 794.371094 135.65625 C 799.085938 130.285156 802.96875 126.003906 810.523438 125.039062 C 818.96875 123.964844 822.777344 131.832031 827.019531 137.472656 C 828.257812 139.132812 831.140625 138.238281 830.53125 135.988281 Z M 830.53125 135.988281 " fill-opacity="1" fill-rule="nonzero"/><path fill="#482700" d="M 728.308594 135.308594 C 730.5 127.191406 738.042969 120.511719 746.328125 119.757812 C 754.761719 119.003906 764.792969 125.25 767.375 133.277344 C 767.90625 134.914062 765.621094 136.285156 764.46875 134.972656 C 759.757812 129.605469 755.875 125.324219 748.320312 124.359375 C 739.871094 123.28125 736.0625 131.152344 731.820312 136.792969 C 730.574219 138.449219 727.703125 137.558594 728.308594 135.308594 Z M 728.308594 135.308594 " fill-opacity="1" fill-rule="nonzero"/><g fill="#000000" fill-opacity="0.4"><g transform="translate(231.370588, 271.54794)"><g><path d="M 64.84375 -81.859375 C 71.203125 -92.640625 54.3125 -102.515625 48.078125 -91.734375 C 43.921875 -84.59375 38.078125 -73.546875 30.40625 -69.125 C 30.796875 -77.4375 31.0625 -85.890625 31.0625 -94.328125 C 31.1875 -106.9375 11.6875 -106.9375 11.5625 -94.328125 C 11.4375 -69.515625 9.875 -44.703125 6.625 -20.140625 C 5.84375 -14.8125 7.796875 -9.75 13.390625 -8.0625 C 17.9375 -6.75 24.6875 -9.75 25.34375 -14.9375 C 26.890625 -25.734375 28.0625 -36.640625 28.96875 -47.5625 C 35.734375 -41.3125 40.015625 -32.609375 40.796875 -23.515625 C 41.96875 -11.046875 61.453125 -10.921875 60.296875 -23.515625 C 59.125 -36.515625 54.3125 -47.953125 46.25 -57.296875 C 53.921875 -64.0625 59.765625 -73.15625 64.84375 -81.859375 Z M 64.84375 -81.859375 "/></g></g></g><g fill="#000000" fill-opacity="0.4"><g transform="translate(304.132898, 271.54794)"><g><path d="M 54.1875 -27.421875 C 45.21875 -27.671875 36.25 -27.421875 27.421875 -26.5 C 28.0625 -31.4375 28.84375 -36.375 29.5 -41.453125 C 33.90625 -41.453125 38.328125 -41.1875 42.75 -40.796875 C 48.078125 -40.28125 52.5 -45.609375 52.5 -50.546875 C 52.5 -56.265625 48.078125 -59.765625 42.75 -60.296875 C 39.375 -60.546875 36 -60.8125 32.484375 -60.8125 C 33.265625 -65.875 34.171875 -70.953125 34.953125 -75.890625 C 41.578125 -75.890625 48.078125 -75.75 54.703125 -75.234375 C 67.171875 -74.453125 67.171875 -93.9375 54.703125 -94.71875 C 45.34375 -95.375 35.859375 -95.5 26.5 -95.25 C 22.875 -95.109375 20.265625 -93.296875 18.71875 -90.953125 C 18.0625 -89.921875 17.546875 -88.625 17.28125 -87.0625 C 13 -63.28125 9.484375 -39.375 6.5 -15.328125 C 5.59375 -8.453125 13.390625 -5.0625 18.84375 -5.984375 C 30.53125 -7.796875 42.359375 -8.3125 54.1875 -7.921875 C 66.65625 -7.40625 66.65625 -26.890625 54.1875 -27.421875 Z M 54.1875 -27.421875 "/></g></g></g><g fill="#000000" fill-opacity="0.4"><g transform="translate(374.686353, 271.54794)"><g><path d="M 58.984375 -54.046875 C 49.5 -53.921875 31.3125 -53.015625 36.640625 -38.078125 C 39.5 -29.890625 49.5 -29.890625 53.921875 -34.5625 C 54.578125 -34.5625 55.21875 -34.5625 55.75 -34.5625 C 56 -34.5625 56.265625 -34.5625 56.390625 -34.5625 C 56.265625 -33.65625 56.265625 -32.75 56 -32.359375 C 55.359375 -30.53125 54.3125 -28.96875 53.015625 -27.671875 C 46.640625 -21.1875 31.3125 -24.8125 27.421875 -32.875 C 19.234375 -49.890625 39.109375 -83.296875 59.515625 -76.140625 C 71.328125 -71.984375 76.53125 -90.828125 64.703125 -94.984375 C 17.671875 -111.359375 -20.53125 -21.828125 31.0625 -7.140625 C 41.703125 -4.15625 53.28125 -3.765625 62.5 -10.265625 C 70.953125 -16.234375 76.140625 -26.375 76.65625 -36.640625 C 77.046875 -48.59375 70.5625 -54.3125 58.984375 -54.046875 Z M 58.984375 -54.046875 "/></g></g></g><g fill="#000000" fill-opacity="0.4"><g transform="translate(457.843272, 271.54794)"><g><path d="M 12.34375 -79.90625 C 9.75 -56.515625 7.796875 -33 6.5 -9.359375 C 5.71875 3.125 25.203125 3.125 25.984375 -9.359375 C 27.28125 -33 29.234375 -56.515625 31.828125 -79.90625 C 33.140625 -92.390625 13.640625 -92.25 12.34375 -79.90625 Z M 12.34375 -79.90625 "/></g></g></g><g fill="#000000" fill-opacity="0.4"><g transform="translate(496.303336, 271.54794)"><g><path d="M 67.171875 -56.78125 C 66.78125 -68.09375 66.53125 -97.71875 47.296875 -89.53125 C 34.828125 -84.203125 25.34375 -67.953125 20.015625 -56.140625 C 13 -40.40625 9.609375 -23.65625 6.625 -6.625 C 4.421875 5.59375 23.125 10.921875 25.34375 -1.421875 C 26.5 -8.0625 27.671875 -14.546875 29.109375 -21.046875 L 48.59375 -20.40625 C 48.859375 -15.203125 48.984375 -10 49.109375 -4.8125 C 49.375 7.671875 68.859375 7.671875 68.484375 -4.8125 C 68.09375 -22.09375 67.828125 -39.5 67.171875 -56.78125 Z M 34.5625 -40.40625 C 34.828125 -41.0625 35.078125 -41.84375 35.34375 -42.484375 C 37.546875 -48.34375 40.40625 -53.921875 43.78125 -59.125 C 44.953125 -60.9375 46.25 -62.5 47.5625 -64.1875 C 47.6875 -61.59375 47.5625 -58.984375 47.6875 -56.78125 C 47.953125 -51.203125 48.078125 -45.484375 48.203125 -39.890625 C 43.65625 -40.015625 39.109375 -40.15625 34.5625 -40.40625 Z M 34.5625 -40.40625 "/></g></g></g><g fill="#000000" fill-opacity="0.4"><g transform="translate(571.404422, 271.54794)"><g><path d="M 59.125 -89.265625 C 44.703125 -91.09375 30.28125 -91.34375 15.71875 -89.78125 C 3.375 -88.625 3.25 -69.125 15.71875 -70.421875 C 19.625 -70.8125 23.390625 -70.953125 27.15625 -71.203125 C 25.984375 -52.109375 24.953125 -33.140625 23.78125 -14.15625 C 23 -1.5625 42.484375 -1.6875 43.265625 -14.15625 C 44.4375 -33 45.484375 -51.96875 46.640625 -70.953125 C 50.8125 -70.6875 54.96875 -70.296875 59.125 -69.78125 C 71.59375 -68.09375 71.46875 -87.578125 59.125 -89.265625 Z M 59.125 -89.265625 "/></g></g></g><g fill="#000000" fill-opacity="0.4"><g transform="translate(646.375611, 271.54794)"><g><path d="M 67.171875 -56.78125 C 66.78125 -68.09375 66.53125 -97.71875 47.296875 -89.53125 C 34.828125 -84.203125 25.34375 -67.953125 20.015625 -56.140625 C 13 -40.40625 9.609375 -23.65625 6.625 -6.625 C 4.421875 5.59375 23.125 10.921875 25.34375 -1.421875 C 26.5 -8.0625 27.671875 -14.546875 29.109375 -21.046875 L 48.59375 -20.40625 C 48.859375 -15.203125 48.984375 -10 49.109375 -4.8125 C 49.375 7.671875 68.859375 7.671875 68.484375 -4.8125 C 68.09375 -22.09375 67.828125 -39.5 67.171875 -56.78125 Z M 34.5625 -40.40625 C 34.828125 -41.0625 35.078125 -41.84375 35.34375 -42.484375 C 37.546875 -48.34375 40.40625 -53.921875 43.78125 -59.125 C 44.953125 -60.9375 46.25 -62.5 47.5625 -64.1875 C 47.6875 -61.59375 47.5625 -58.984375 47.6875 -56.78125 C 47.953125 -51.203125 48.078125 -45.484375 48.203125 -39.890625 C 43.65625 -40.015625 39.109375 -40.15625 34.5625 -40.40625 Z M 34.5625 -40.40625 "/></g></g></g><g fill="#000000" fill-opacity="0.4"><g transform="translate(721.476697, 271.54794)"><g><path d="M 57.171875 -78.609375 C 55.09375 -64.578125 52.625 -50.671875 50.03125 -36.765625 L 38.46875 -63.15625 C 35.078125 -71.203125 22.734375 -68.34375 20.65625 -60.8125 C 15.203125 -40.546875 10.53125 -20.140625 6.625 0.515625 C 4.28125 12.734375 23.125 18.0625 25.46875 5.71875 C 27.546875 -5.71875 30.015625 -17.015625 32.609375 -28.328125 C 36.765625 -18.84375 40.796875 -9.359375 44.953125 0 C 48.34375 7.796875 61.078125 5.453125 62.765625 -2.203125 C 67.953125 -25.859375 72.375 -49.5 75.890625 -73.421875 C 77.703125 -85.765625 58.859375 -90.953125 57.171875 -78.609375 Z M 57.171875 -78.609375 "/></g></g></g><g fill="#f4ca44" fill-opacity="1"><g transform="translate(225.628156, 265.805508)"><g><path d="M 64.84375 -81.859375 C 71.203125 -92.640625 54.3125 -102.515625 48.078125 -91.734375 C 43.921875 -84.59375 38.078125 -73.546875 30.40625 -69.125 C 30.796875 -77.4375 31.0625 -85.890625 31.0625 -94.328125 C 31.1875 -106.9375 11.6875 -106.9375 11.5625 -94.328125 C 11.4375 -69.515625 9.875 -44.703125 6.625 -20.140625 C 5.84375 -14.8125 7.796875 -9.75 13.390625 -8.0625 C 17.9375 -6.75 24.6875 -9.75 25.34375 -14.9375 C 26.890625 -25.734375 28.0625 -36.640625 28.96875 -47.5625 C 35.734375 -41.3125 40.015625 -32.609375 40.796875 -23.515625 C 41.96875 -11.046875 61.453125 -10.921875 60.296875 -23.515625 C 59.125 -36.515625 54.3125 -47.953125 46.25 -57.296875 C 53.921875 -64.0625 59.765625 -73.15625 64.84375 -81.859375 Z M 64.84375 -81.859375 "/></g></g></g><g fill="#f4ca44" fill-opacity="1"><g transform="translate(298.390466, 265.805508)"><g><path d="M 54.1875 -27.421875 C 45.21875 -27.671875 36.25 -27.421875 27.421875 -26.5 C 28.0625 -31.4375 28.84375 -36.375 29.5 -41.453125 C 33.90625 -41.453125 38.328125 -41.1875 42.75 -40.796875 C 48.078125 -40.28125 52.5 -45.609375 52.5 -50.546875 C 52.5 -56.265625 48.078125 -59.765625 42.75 -60.296875 C 39.375 -60.546875 36 -60.8125 32.484375 -60.8125 C 33.265625 -65.875 34.171875 -70.953125 34.953125 -75.890625 C 41.578125 -75.890625 48.078125 -75.75 54.703125 -75.234375 C 67.171875 -74.453125 67.171875 -93.9375 54.703125 -94.71875 C 45.34375 -95.375 35.859375 -95.5 26.5 -95.25 C 22.875 -95.109375 20.265625 -93.296875 18.71875 -90.953125 C 18.0625 -89.921875 17.546875 -88.625 17.28125 -87.0625 C 13 -63.28125 9.484375 -39.375 6.5 -15.328125 C 5.59375 -8.453125 13.390625 -5.0625 18.84375 -5.984375 C 30.53125 -7.796875 42.359375 -8.3125 54.1875 -7.921875 C 66.65625 -7.40625 66.65625 -26.890625 54.1875 -27.421875 Z M 54.1875 -27.421875 "/></g></g></g><g fill="#f4ca44" fill-opacity="1"><g transform="translate(368.943921, 265.805508)"><g><path d="M 58.984375 -54.046875 C 49.5 -53.921875 31.3125 -53.015625 36.640625 -38.078125 C 39.5 -29.890625 49.5 -29.890625 53.921875 -34.5625 C 54.578125 -34.5625 55.21875 -34.5625 55.75 -34.5625 C 56 -34.5625 56.265625 -34.5625 56.390625 -34.5625 C 56.265625 -33.65625 56.265625 -32.75 56 -32.359375 C 55.359375 -30.53125 54.3125 -28.96875 53.015625 -27.671875 C 46.640625 -21.1875 31.3125 -24.8125 27.421875 -32.875 C 19.234375 -49.890625 39.109375 -83.296875 59.515625 -76.140625 C 71.328125 -71.984375 76.53125 -90.828125 64.703125 -94.984375 C 17.671875 -111.359375 -20.53125 -21.828125 31.0625 -7.140625 C 41.703125 -4.15625 53.28125 -3.765625 62.5 -10.265625 C 70.953125 -16.234375 76.140625 -26.375 76.65625 -36.640625 C 77.046875 -48.59375 70.5625 -54.3125 58.984375 -54.046875 Z M 58.984375 -54.046875 "/></g></g></g><g fill="#f4ca44" fill-opacity="1"><g transform="translate(452.100839, 265.805508)"><g><path d="M 12.34375 -79.90625 C 9.75 -56.515625 7.796875 -33 6.5 -9.359375 C 5.71875 3.125 25.203125 3.125 25.984375 -9.359375 C 27.28125 -33 29.234375 -56.515625 31.828125 -79.90625 C 33.140625 -92.390625 13.640625 -92.25 12.34375 -79.90625 Z M 12.34375 -79.90625 "/></g></g></g><g fill="#f4ca44" fill-opacity="1"><g transform="translate(490.560904, 265.805508)"><g><path d="M 67.171875 -56.78125 C 66.78125 -68.09375 66.53125 -97.71875 47.296875 -89.53125 C 34.828125 -84.203125 25.34375 -67.953125 20.015625 -56.140625 C 13 -40.40625 9.609375 -23.65625 6.625 -6.625 C 4.421875 5.59375 23.125 10.921875 25.34375 -1.421875 C 26.5 -8.0625 27.671875 -14.546875 29.109375 -21.046875 L 48.59375 -20.40625 C 48.859375 -15.203125 48.984375 -10 49.109375 -4.8125 C 49.375 7.671875 68.859375 7.671875 68.484375 -4.8125 C 68.09375 -22.09375 67.828125 -39.5 67.171875 -56.78125 Z M 34.5625 -40.40625 C 34.828125 -41.0625 35.078125 -41.84375 35.34375 -42.484375 C 37.546875 -48.34375 40.40625 -53.921875 43.78125 -59.125 C 44.953125 -60.9375 46.25 -62.5 47.5625 -64.1875 C 47.6875 -61.59375 47.5625 -58.984375 47.6875 -56.78125 C 47.953125 -51.203125 48.078125 -45.484375 48.203125 -39.890625 C 43.65625 -40.015625 39.109375 -40.15625 34.5625 -40.40625 Z M 34.5625 -40.40625 "/></g></g></g><g fill="#f4ca44" fill-opacity="1"><g transform="translate(565.661989, 265.805508)"><g><path d="M 59.125 -89.265625 C 44.703125 -91.09375 30.28125 -91.34375 15.71875 -89.78125 C 3.375 -88.625 3.25 -69.125 15.71875 -70.421875 C 19.625 -70.8125 23.390625 -70.953125 27.15625 -71.203125 C 25.984375 -52.109375 24.953125 -33.140625 23.78125 -14.15625 C 23 -1.5625 42.484375 -1.6875 43.265625 -14.15625 C 44.4375 -33 45.484375 -51.96875 46.640625 -70.953125 C 50.8125 -70.6875 54.96875 -70.296875 59.125 -69.78125 C 71.59375 -68.09375 71.46875 -87.578125 59.125 -89.265625 Z M 59.125 -89.265625 "/></g></g></g><g fill="#f4ca44" fill-opacity="1"><g transform="translate(640.633179, 265.805508)"><g><path d="M 67.171875 -56.78125 C 66.78125 -68.09375 66.53125 -97.71875 47.296875 -89.53125 C 34.828125 -84.203125 25.34375 -67.953125 20.015625 -56.140625 C 13 -40.40625 9.609375 -23.65625 6.625 -6.625 C 4.421875 5.59375 23.125 10.921875 25.34375 -1.421875 C 26.5 -8.0625 27.671875 -14.546875 29.109375 -21.046875 L 48.59375 -20.40625 C 48.859375 -15.203125 48.984375 -10 49.109375 -4.8125 C 49.375 7.671875 68.859375 7.671875 68.484375 -4.8125 C 68.09375 -22.09375 67.828125 -39.5 67.171875 -56.78125 Z M 34.5625 -40.40625 C 34.828125 -41.0625 35.078125 -41.84375 35.34375 -42.484375 C 37.546875 -48.34375 40.40625 -53.921875 43.78125 -59.125 C 44.953125 -60.9375 46.25 -62.5 47.5625 -64.1875 C 47.6875 -61.59375 47.5625 -58.984375 47.6875 -56.78125 C 47.953125 -51.203125 48.078125 -45.484375 48.203125 -39.890625 C 43.65625 -40.015625 39.109375 -40.15625 34.5625 -40.40625 Z M 34.5625 -40.40625 "/></g></g></g><g fill="#f4ca44" fill-opacity="1"><g transform="translate(715.734265, 265.805508)"><g><path d="M 57.171875 -78.609375 C 55.09375 -64.578125 52.625 -50.671875 50.03125 -36.765625 L 38.46875 -63.15625 C 35.078125 -71.203125 22.734375 -68.34375 20.65625 -60.8125 C 15.203125 -40.546875 10.53125 -20.140625 6.625 0.515625 C 4.28125 12.734375 23.125 18.0625 25.46875 5.71875 C 27.546875 -5.71875 30.015625 -17.015625 32.609375 -28.328125 C 36.765625 -18.84375 40.796875 -9.359375 44.953125 0 C 48.34375 7.796875 61.078125 5.453125 62.765625 -2.203125 C 67.953125 -25.859375 72.375 -49.5 75.890625 -73.421875 C 77.703125 -85.765625 58.859375 -90.953125 57.171875 -78.609375 Z M 57.171875 -78.609375 "/></g></g></g><g fill="#000000" fill-opacity="0.4"><g transform="translate(254.363272, 399.89593)"><g><path d="M 48.34375 -56.140625 C 44.953125 -58.34375 37.15625 -60.421875 35.609375 -64.578125 C 33.265625 -70.953125 41.96875 -75.5 46.390625 -77.4375 C 57.6875 -82.765625 47.8125 -99.65625 36.515625 -94.328125 C 19.09375 -86.15625 7.015625 -62.890625 24.421875 -47.953125 C 30.53125 -42.484375 42.625 -40.40625 43.921875 -30.921875 C 44.4375 -26.765625 42.484375 -23.125 38.84375 -21.5625 C 36.375 -20.40625 27.28125 -18.96875 25.203125 -21.828125 C 17.671875 -31.703125 0.78125 -22.09375 8.3125 -12.078125 C 23.65625 8.1875 60.296875 -0.265625 63.15625 -26.375 C 64.453125 -38.203125 58.21875 -49.5 48.34375 -56.140625 Z M 48.34375 -56.140625 "/></g></g></g><g fill="#000000" fill-opacity="0.4"><g transform="translate(324.267065, 399.89593)"><g><path d="M 54.1875 -27.421875 C 45.21875 -27.671875 36.25 -27.421875 27.421875 -26.5 C 28.0625 -31.4375 28.84375 -36.375 29.5 -41.453125 C 33.90625 -41.453125 38.328125 -41.1875 42.75 -40.796875 C 48.078125 -40.28125 52.5 -45.609375 52.5 -50.546875 C 52.5 -56.265625 48.078125 -59.765625 42.75 -60.296875 C 39.375 -60.546875 36 -60.8125 32.484375 -60.8125 C 33.265625 -65.875 34.171875 -70.953125 34.953125 -75.890625 C 41.578125 -75.890625 48.078125 -75.75 54.703125 -75.234375 C 67.171875 -74.453125 67.171875 -93.9375 54.703125 -94.71875 C 45.34375 -95.375 35.859375 -95.5 26.5 -95.25 C 22.875 -95.109375 20.265625 -93.296875 18.71875 -90.953125 C 18.0625 -89.921875 17.546875 -88.625 17.28125 -87.0625 C 13 -63.28125 9.484375 -39.375 6.5 -15.328125 C 5.59375 -8.453125 13.390625 -5.0625 18.84375 -5.984375 C 30.53125 -7.796875 42.359375 -8.3125 54.1875 -7.921875 C 66.65625 -7.40625 66.65625 -26.890625 54.1875 -27.421875 Z M 54.1875 -27.421875 "/></g></g></g><g fill="#000000" fill-opacity="0.4"><g transform="translate(394.82052, 399.89593)"><g><path d="M 64.84375 -81.859375 C 71.203125 -92.640625 54.3125 -102.515625 48.078125 -91.734375 C 43.921875 -84.59375 38.078125 -73.546875 30.40625 -69.125 C 30.796875 -77.4375 31.0625 -85.890625 31.0625 -94.328125 C 31.1875 -106.9375 11.6875 -106.9375 11.5625 -94.328125 C 11.4375 -69.515625 9.875 -44.703125 6.625 -20.140625 C 5.84375 -14.8125 7.796875 -9.75 13.390625 -8.0625 C 17.9375 -6.75 24.6875 -9.75 25.34375 -14.9375 C 26.890625 -25.734375 28.0625 -36.640625 28.96875 -47.5625 C 35.734375 -41.3125 40.015625 -32.609375 40.796875 -23.515625 C 41.96875 -11.046875 61.453125 -10.921875 60.296875 -23.515625 C 59.125 -36.515625 54.3125 -47.953125 46.25 -57.296875 C 53.921875 -64.0625 59.765625 -73.15625 64.84375 -81.859375 Z M 64.84375 -81.859375 "/></g></g></g><g fill="#000000" fill-opacity="0.4"><g transform="translate(467.582842, 399.89593)"><g><path d="M 72.25 -79.265625 C 61.59375 -96.796875 33.78125 -99.015625 19.875 -84.84375 C 6.234375 -73.15625 4.28125 -46 8.1875 -30.796875 C 10.921875 -20.40625 17.796875 -9.484375 28.453125 -6.109375 C 39.5 -2.46875 51.71875 -6.5 60.421875 -13.640625 C 69.25 -21.046875 74.71875 -31.828125 76.53125 -43.140625 C 78.21875 -54.3125 78.359375 -69.25 72.25 -79.265625 Z M 48.59375 -28.71875 C 48.203125 -28.453125 47.953125 -28.203125 47.5625 -27.8125 C 43.40625 -24.296875 36.765625 -22.875 32.359375 -26.25 C 29.5 -28.328125 28.203125 -31.828125 27.28125 -35.21875 C 25.984375 -40.796875 25.734375 -46.640625 26.375 -52.359375 C 27.03125 -57.5625 28.328125 -64.1875 31.3125 -68.484375 C 34.046875 -72.25 38.59375 -74.578125 43.265625 -74.71875 C 51.328125 -74.84375 56.515625 -69.390625 57.4375 -61.84375 C 58.984375 -50.421875 57.296875 -37.03125 48.59375 -28.71875 Z M 48.59375 -28.71875 "/></g></g></g><g fill="#000000" fill-opacity="0.4"><g transform="translate(551.649294, 399.89593)"><g><path d="M 57.171875 -41.96875 C 47.03125 -41.1875 37.03125 -39.765625 27.15625 -37.546875 C 28.84375 -53.671875 30.40625 -69.640625 31.96875 -85.625 C 33.140625 -98.109375 13.640625 -97.96875 12.46875 -85.625 C 10.53125 -65.359375 8.453125 -45.09375 6.5 -24.8125 C 5.84375 -18.453125 13.25 -13.765625 18.84375 -15.46875 C 31.4375 -19.09375 44.171875 -21.4375 57.171875 -22.484375 C 69.640625 -23.390625 69.78125 -42.875 57.171875 -41.96875 Z M 57.171875 -41.96875 "/></g></g></g><g fill="#000000" fill-opacity="0.4"><g transform="translate(624.801394, 399.89593)"><g><path d="M 67.171875 -56.78125 C 66.78125 -68.09375 66.53125 -97.71875 47.296875 -89.53125 C 34.828125 -84.203125 25.34375 -67.953125 20.015625 -56.140625 C 13 -40.40625 9.609375 -23.65625 6.625 -6.625 C 4.421875 5.59375 23.125 10.921875 25.34375 -1.421875 C 26.5 -8.0625 27.671875 -14.546875 29.109375 -21.046875 L 48.59375 -20.40625 C 48.859375 -15.203125 48.984375 -10 49.109375 -4.8125 C 49.375 7.671875 68.859375 7.671875 68.484375 -4.8125 C 68.09375 -22.09375 67.828125 -39.5 67.171875 -56.78125 Z M 34.5625 -40.40625 C 34.828125 -41.0625 35.078125 -41.84375 35.34375 -42.484375 C 37.546875 -48.34375 40.40625 -53.921875 43.78125 -59.125 C 44.953125 -60.9375 46.25 -62.5 47.5625 -64.1875 C 47.6875 -61.59375 47.5625 -58.984375 47.6875 -56.78125 C 47.953125 -51.203125 48.078125 -45.484375 48.203125 -39.890625 C 43.65625 -40.015625 39.109375 -40.15625 34.5625 -40.40625 Z M 34.5625 -40.40625 "/></g></g></g><g fill="#000000" fill-opacity="0.4"><g transform="translate(699.90248, 399.89593)"><g><path d="M 55.609375 -90.703125 C 53.40625 -79.65625 51.578125 -68.34375 50.03125 -57.171875 L 31.96875 -57.171875 C 32.21875 -60.03125 32.609375 -62.765625 32.875 -65.484375 C 33.65625 -71.46875 33.53125 -78.609375 35.609375 -84.203125 C 40.015625 -95.890625 21.1875 -101.09375 16.765625 -89.390625 C 14.6875 -83.546875 14.6875 -76.40625 14.03125 -70.296875 C 13.125 -63.40625 12.34375 -56.515625 11.5625 -49.640625 C 9.875 -35.34375 8.1875 -21.046875 6.5 -6.75 C 5.0625 5.59375 24.5625 5.453125 25.984375 -6.75 C 27.15625 -17.15625 28.453125 -27.421875 29.625 -37.6875 L 47.5625 -37.6875 C 46.640625 -29.625 45.875 -21.4375 45.21875 -13.390625 C 44.3125 -0.90625 63.796875 -0.90625 64.703125 -13.390625 C 66.53125 -37.6875 69.78125 -61.71875 74.453125 -85.5 C 76.796875 -97.84375 58.078125 -103.046875 55.609375 -90.703125 Z M 55.609375 -90.703125 "/></g></g></g><g fill="#59b379" fill-opacity="1"><g transform="translate(248.620839, 394.153498)"><g><path d="M 48.34375 -56.140625 C 44.953125 -58.34375 37.15625 -60.421875 35.609375 -64.578125 C 33.265625 -70.953125 41.96875 -75.5 46.390625 -77.4375 C 57.6875 -82.765625 47.8125 -99.65625 36.515625 -94.328125 C 19.09375 -86.15625 7.015625 -62.890625 24.421875 -47.953125 C 30.53125 -42.484375 42.625 -40.40625 43.921875 -30.921875 C 44.4375 -26.765625 42.484375 -23.125 38.84375 -21.5625 C 36.375 -20.40625 27.28125 -18.96875 25.203125 -21.828125 C 17.671875 -31.703125 0.78125 -22.09375 8.3125 -12.078125 C 23.65625 8.1875 60.296875 -0.265625 63.15625 -26.375 C 64.453125 -38.203125 58.21875 -49.5 48.34375 -56.140625 Z M 48.34375 -56.140625 "/></g></g></g><g fill="#59b379" fill-opacity="1"><g transform="translate(318.524632, 394.153498)"><g><path d="M 54.1875 -27.421875 C 45.21875 -27.671875 36.25 -27.421875 27.421875 -26.5 C 28.0625 -31.4375 28.84375 -36.375 29.5 -41.453125 C 33.90625 -41.453125 38.328125 -41.1875 42.75 -40.796875 C 48.078125 -40.28125 52.5 -45.609375 52.5 -50.546875 C 52.5 -56.265625 48.078125 -59.765625 42.75 -60.296875 C 39.375 -60.546875 36 -60.8125 32.484375 -60.8125 C 33.265625 -65.875 34.171875 -70.953125 34.953125 -75.890625 C 41.578125 -75.890625 48.078125 -75.75 54.703125 -75.234375 C 67.171875 -74.453125 67.171875 -93.9375 54.703125 -94.71875 C 45.34375 -95.375 35.859375 -95.5 26.5 -95.25 C 22.875 -95.109375 20.265625 -93.296875 18.71875 -90.953125 C 18.0625 -89.921875 17.546875 -88.625 17.28125 -87.0625 C 13 -63.28125 9.484375 -39.375 6.5 -15.328125 C 5.59375 -8.453125 13.390625 -5.0625 18.84375 -5.984375 C 30.53125 -7.796875 42.359375 -8.3125 54.1875 -7.921875 C 66.65625 -7.40625 66.65625 -26.890625 54.1875 -27.421875 Z M 54.1875 -27.421875 "/></g></g></g><g fill="#59b379" fill-opacity="1"><g transform="translate(389.078087, 394.153498)"><g><path d="M 64.84375 -81.859375 C 71.203125 -92.640625 54.3125 -102.515625 48.078125 -91.734375 C 43.921875 -84.59375 38.078125 -73.546875 30.40625 -69.125 C 30.796875 -77.4375 31.0625 -85.890625 31.0625 -94.328125 C 31.1875 -106.9375 11.6875 -106.9375 11.5625 -94.328125 C 11.4375 -69.515625 9.875 -44.703125 6.625 -20.140625 C 5.84375 -14.8125 7.796875 -9.75 13.390625 -8.0625 C 17.9375 -6.75 24.6875 -9.75 25.34375 -14.9375 C 26.890625 -25.734375 28.0625 -36.640625 28.96875 -47.5625 C 35.734375 -41.3125 40.015625 -32.609375 40.796875 -23.515625 C 41.96875 -11.046875 61.453125 -10.921875 60.296875 -23.515625 C 59.125 -36.515625 54.3125 -47.953125 46.25 -57.296875 C 53.921875 -64.0625 59.765625 -73.15625 64.84375 -81.859375 Z M 64.84375 -81.859375 "/></g></g></g><g fill="#59b379" fill-opacity="1"><g transform="translate(461.84041, 394.153498)"><g><path d="M 72.25 -79.265625 C 61.59375 -96.796875 33.78125 -99.015625 19.875 -84.84375 C 6.234375 -73.15625 4.28125 -46 8.1875 -30.796875 C 10.921875 -20.40625 17.796875 -9.484375 28.453125 -6.109375 C 39.5 -2.46875 51.71875 -6.5 60.421875 -13.640625 C 69.25 -21.046875 74.71875 -31.828125 76.53125 -43.140625 C 78.21875 -54.3125 78.359375 -69.25 72.25 -79.265625 Z M 48.59375 -28.71875 C 48.203125 -28.453125 47.953125 -28.203125 47.5625 -27.8125 C 43.40625 -24.296875 36.765625 -22.875 32.359375 -26.25 C 29.5 -28.328125 28.203125 -31.828125 27.28125 -35.21875 C 25.984375 -40.796875 25.734375 -46.640625 26.375 -52.359375 C 27.03125 -57.5625 28.328125 -64.1875 31.3125 -68.484375 C 34.046875 -72.25 38.59375 -74.578125 43.265625 -74.71875 C 51.328125 -74.84375 56.515625 -69.390625 57.4375 -61.84375 C 58.984375 -50.421875 57.296875 -37.03125 48.59375 -28.71875 Z M 48.59375 -28.71875 "/></g></g></g><g fill="#59b379" fill-opacity="1"><g transform="translate(545.906861, 394.153498)"><g><path d="M 57.171875 -41.96875 C 47.03125 -41.1875 37.03125 -39.765625 27.15625 -37.546875 C 28.84375 -53.671875 30.40625 -69.640625 31.96875 -85.625 C 33.140625 -98.109375 13.640625 -97.96875 12.46875 -85.625 C 10.53125 -65.359375 8.453125 -45.09375 6.5 -24.8125 C 5.84375 -18.453125 13.25 -13.765625 18.84375 -15.46875 C 31.4375 -19.09375 44.171875 -21.4375 57.171875 -22.484375 C 69.640625 -23.390625 69.78125 -42.875 57.171875 -41.96875 Z M 57.171875 -41.96875 "/></g></g></g><g fill="#59b379" fill-opacity="1"><g transform="translate(619.058962, 394.153498)"><g><path d="M 67.171875 -56.78125 C 66.78125 -68.09375 66.53125 -97.71875 47.296875 -89.53125 C 34.828125 -84.203125 25.34375 -67.953125 20.015625 -56.140625 C 13 -40.40625 9.609375 -23.65625 6.625 -6.625 C 4.421875 5.59375 23.125 10.921875 25.34375 -1.421875 C 26.5 -8.0625 27.671875 -14.546875 29.109375 -21.046875 L 48.59375 -20.40625 C 48.859375 -15.203125 48.984375 -10 49.109375 -4.8125 C 49.375 7.671875 68.859375 7.671875 68.484375 -4.8125 C 68.09375 -22.09375 67.828125 -39.5 67.171875 -56.78125 Z M 34.5625 -40.40625 C 34.828125 -41.0625 35.078125 -41.84375 35.34375 -42.484375 C 37.546875 -48.34375 40.40625 -53.921875 43.78125 -59.125 C 44.953125 -60.9375 46.25 -62.5 47.5625 -64.1875 C 47.6875 -61.59375 47.5625 -58.984375 47.6875 -56.78125 C 47.953125 -51.203125 48.078125 -45.484375 48.203125 -39.890625 C 43.65625 -40.015625 39.109375 -40.15625 34.5625 -40.40625 Z M 34.5625 -40.40625 "/></g></g></g><g fill="#59b379" fill-opacity="1"><g transform="translate(694.160047, 394.153498)"><g><path d="M 55.609375 -90.703125 C 53.40625 -79.65625 51.578125 -68.34375 50.03125 -57.171875 L 31.96875 -57.171875 C 32.21875 -60.03125 32.609375 -62.765625 32.875 -65.484375 C 33.65625 -71.46875 33.53125 -78.609375 35.609375 -84.203125 C 40.015625 -95.890625 21.1875 -101.09375 16.765625 -89.390625 C 14.6875 -83.546875 14.6875 -76.40625 14.03125 -70.296875 C 13.125 -63.40625 12.34375 -56.515625 11.5625 -49.640625 C 9.875 -35.34375 8.1875 -21.046875 6.5 -6.75 C 5.0625 5.59375 24.5625 5.453125 25.984375 -6.75 C 27.15625 -17.15625 28.453125 -27.421875 29.625 -37.6875 L 47.5625 -37.6875 C 46.640625 -29.625 45.875 -21.4375 45.21875 -13.390625 C 44.3125 -0.90625 63.796875 -0.90625 64.703125 -13.390625 C 66.53125 -37.6875 69.78125 -61.71875 74.453125 -85.5 C 76.796875 -97.84375 58.078125 -103.046875 55.609375 -90.703125 Z M 55.609375 -90.703125 "/></g></g></g></svg>